# xmcd
#
# Track frame offsets:
#	150
#	18150
#	32010
#	50535
#	117122
#	133505
#	265035
#
# Disc length: 3823 seconds
#
# Revision: 1
# Processed by: cddbd v1.5.1PL0 Copyright (c) Steve Scherf et al.
# Submitted via: CDex 1.50Beta5
#
DISCID=510eed07
DTITLE=Falcom Sound Team J.D.K. - F・S・BOX'95 〜CDドラマ 風の伝説ザナドゥ? [CD1]
DYEAR=1900
DGENRE=Anime
TTITLE0=試練
TTITLE1=プロローグ〜失われた魔法
TTITLE2=島
TTITLE3=第1章〜風がやんで・・・
TTITLE4=村
TTITLE5=第2章〜新たなる風の予感
TTITLE6=風の伝説〜ボーカル・バージョン
EXTD=
EXTT0=
EXTT1=
EXTT2=
EXTT3=
EXTT4=
EXTT5=
EXTT6=
PLAYORDER=
